<?xml version="1.0"?>
<svg height="160px" width="160px" viewBox="0 0 320 320" xmlns="http://www.w3.org/2000/svg" xmlns:xlink="http://www.w3.org/1999/xlink">
<defs>
<radialGradient id="a" cx="127" cy="153" r="146" gradientUnits="userSpaceOnUse">
<stop stop-color="#fe3" offset="0"/>
<stop stop-color="#f80" offset="1"/>
</radialGradient>
<radialGradient id="b" cx="54" cy="191" r="17.5" gradientTransform="matrix(-1.316 -.264 -.3331 2.02 349.4 -168)" gradientUnits="userSpaceOnUse">
<stop stop-color="#f00" offset="0"/>
<stop stop-color="#f00" stop-opacity="0" offset="1"/>
</radialGradient>
<radialGradient id="f" cx="186" cy="131.6" r="37" gradientTransform="matrix(1.4 0 0 .8705 -76.29 36.66)" gradientUnits="userSpaceOnUse">
<stop stop-color="#fff" offset="0"/>
<stop stop-color="#fff" offset=".5"/>
<stop stop-color="#840" offset="1"/>
</radialGradient>
<radialGradient id="e" cx="-95.52" cy="141.9" r="51.8" gradientTransform="matrix(.9738 0 0 .9738 -2.539 3.717)" gradientUnits="userSpaceOnUse">
<stop stop-color="#fff" offset="0"/>
<stop stop-color="#fff" offset=".5"/>
<stop stop-color="#433" stop-opacity=".8" offset="1"/>
</radialGradient>
<radialGradient id="d" cx="127" cy="153" r="146" gradientTransform="matrix(.8835 0 0 1 18.04 0)" gradientUnits="userSpaceOnUse" xlink:href="#a"/>
<linearGradient id="i" x1="238.4" x2="217.2" y1="78" y2="123.2" gradientTransform="translate(-5.049e-6)" gradientUnits="userSpaceOnUse">
<stop stop-color="#840" offset="0"/>
<stop stop-opacity="0" offset="1"/>
</linearGradient>
<linearGradient id="h" x1="69.16" x2="81.04" y1="63.84" y2="92.83" gradientTransform="translate(-5.049e-6)" gradientUnits="userSpaceOnUse">
<stop stop-color="#620" offset="0"/>
<stop stop-opacity="0" offset="1"/>
</linearGradient>
<linearGradient id="g" x1="324" x2="294" y1="167" y2="159" gradientUnits="userSpaceOnUse" xlink:href="#a"/>
</defs>
<g transform="translate(-5.049e-6)" stroke="#520">
<path d="m273.7 167.8c0 76.23-17.9 69.67-40.39 90.52-37.94 35.17-47.53 49.89-76.29 55.56-34.84 6.881-44.36.2698-52.86-2.661-26.9-16.91-36.3-45.03-50.6-66.99-2.58-3.963-16.38-7.249-16.91-69.96-.6775-80.08 51.13-150.3 121.9-150.3 70.76 0 115.2 63.72 115.2 143.8z" fill="url(#d)" stroke-width="4.982"/>
<ellipse cx="186.6" cy="151.7" rx="34.53" ry="25.74" fill="url(#f)" stroke-width="4"/>
<path d="m38.27 180.8c7.283 26.08 29.39 23.14 32.75 48.49m42.68-10.9c5.368-1.72 4.893.9308 10.07 8.191 4.836 4.158 12.06 4.293 16.99.8592 4.56-3.028 7.924-8.911 12.54-6.555m52.61 12.88c1.523-26.91 30.57-17.73 48.35-48.16" fill="none" stroke-linecap="round" stroke-width="2.976"/>
</g>
<circle cx="182.9" cy="156.6" r="8.5" stroke="#620" stroke-width="7"/>
<circle transform="scale(-1,1)" cx="-94.4" cy="143" r="33.7" fill="url(#e)" stroke="#520" stroke-width="4"/>
<circle transform="scale(-1,1)" cx="-92.34" cy="147" r="8.5" stroke="#620" stroke-width="7"/>
<ellipse cx="41.98" cy="115" rx="33.75" ry="45.8" fill="url(#b)" stroke-width=".94"/>
<g transform="matrix(.8835 0 0 1 18.04 0)" stroke-linecap="round" stroke-linejoin="round">
<g stroke="#000" stroke-width="9">
<g fill="#ffba19" stroke="#840" stroke-linecap="round" stroke-linejoin="round" stroke-width="2.043">
<path d="m126.4 142.4c-32.77-43.33-70.26-17.83-80.42.6091 4.725-39.47 64.38-52.33 80.42-.6091z" stroke-width="2.128"/>
<path d="m45.25 143.9c18.09 27.66 51.19 36.06 80.58 6.988-20.78 42.37-73.72 30.99-80.58-6.988z"/>
<path d="m153 147.2c22-39 68.21 7.231 80.73 5.401-6.503-32.86-67.86-37.7-80.73-5.401z" stroke-width="4.256"/>
</g>
<path d="m303 187-22.5-28.1-20.57-63.71v-28.73c-35.3 6.49-85.73 10.19-121.1 5.982-25.6-3-51-8.84-75.4-17.3l-13.29 20.4-35.11 82.6c-2.21-40.9 7.832-86.24 36.83-114.8 29-28.8 76.67-33.89 118-31.29 39.7 2.47 79.21 12.58 103 41.82 25.11 30.86 30.7 43.1 30.7 133z"/>
<path d="m128.1 125.4c-15.1-25.8-37.35-50.45-65.35-53.95m96.18 62.06s13.36-5.156 20.29-7.34c33.6-10.6 36.7-14.23 52.77-23.82 2.499-1.49 7.044-9.259 7.044-9.259" fill="none" stroke-width="10"/>
</g>
<g id="c" transform="matrix(1.03 0 0 1.258 -14.74 -28.18)" stroke="#620">
<path d="m291 153c.387-7.78 2.82-15.5 7.27-21.9 4.7-7.1 18.13-15.21 19-23.91.93-7.28 6.59-15.34 3.23-21.94 10.6 2.38 12.01 18.83 13.11 29.53.925 11.3-9.486 20.28-11.57 28.48-2.105 8.285-5.75 14.89-6.824 22.55-1.159 8.264 7.725 19 .4605 24.92-7.402 6.03-13.04 6.119-20.83 1.201-5.372-3.391-3.949-11.15-5.339-15.29" fill="url(#g)" stroke-width="6"/>
<path d="m310 134s3.91 2.28 4.33 5.6c.476 3.73-3.715 8.086 2.464 13.75m-20.73 18.74s-3.698-4.537 1.552-5.676c5.197-1.128 6.045-4.263.7146-8.121-5.225-3.781 3.029-8.254 3.757-9.693 5.015-17.23 8.262-14.15 15.7-23.7" fill="none" stroke-width="4"/>
</g>
<use transform="matrix(-.9034 -.195 -.1818 .919 314.3 57.8)" width="100%" height="100%" xlink:href="#c"/>
<path d="m153.6 205c8.249 2.203 8.436 7.376 11.92 10.29 9.518 7.972 28.09 20.83 33.62 37.52m-84.8-50.36c-5.833.0599-8.69 3.925-12.09 7.85-8.679 10.03-24.07 22.77-28.63 41.83" fill-opacity="0" stroke="#840" stroke-linecap="round" stroke-linejoin="miter" stroke-width="1.021"/>
<path d="m194.4 254.2c-15.55-11.48-7.488 14.72-56.1 16.79-15.08.6411-37.1 5.849-43.29-10.1" fill="none" stroke="#520" stroke-width="9.612"/>
</g>
<path d="m84.66 38.4 21.47 15.1 17.94-1.31 29.33 11.6 32.34-11.6 30.92 4.62 24.39-12.2-29.51 4.2-29.6-5.62-37.64 5.91-17.23-7.74-17.41 4.75z" fill="#14b" stroke-width=".94"/>
<circle transform="scale(1,-1)" cx="187.6" cy="-150" r="2" fill="#fff"/>
<circle transform="scale(1,-1)" cx="98.53" cy="-140.3" r="2" fill="#fff"/>
<path d="m121.7 97.97-51-29.57c-7.991 15-19.52 34.37-19.93 50" fill="url(#h)"/>
<path d="m242.1 143.8-9.203-54.05c-5.717 11.72-41.13 32.57-71.1 35.35" fill="url(#i)"/>
</svg>
